<mxfile host="app.diagrams.net" modified="2021-01-09T19:39:58.041Z" agent="5.0 (Windows)" etag="yi76jfJNC5TtitstZqsE" version="14.1.9" type="github">
  <diagram id="1p904DRUSOk9_n-IS_4u" name="Page-1">
    <mxGraphModel dx="2062" dy="1124" grid="1" gridSize="10" guides="1" tooltips="1" connect="1" arrows="1" fold="1" page="1" pageScale="1" pageWidth="1100" pageHeight="850" math="0" shadow="0">
      <root>
        <mxCell id="0" />
        <mxCell id="1" parent="0" />
        <mxCell id="l08mAWF_vBkr479GJ7V6-64" value="" style="endArrow=none;dashed=1;html=1;strokeWidth=1;" edge="1" parent="1">
          <mxGeometry width="50" height="50" relative="1" as="geometry">
            <mxPoint x="198" y="816" as="sourcePoint" />
            <mxPoint x="197.51" y="574" as="targetPoint" />
          </mxGeometry>
        </mxCell>
        <mxCell id="l08mAWF_vBkr479GJ7V6-11" value="" style="rounded=1;whiteSpace=wrap;html=1;fillColor=none;strokeWidth=2;" vertex="1" parent="1">
          <mxGeometry x="140" y="466" width="690" height="370" as="geometry" />
        </mxCell>
        <mxCell id="9GGa9re0MsrtyDnr-Xyq-20" value="" style="rounded=0;whiteSpace=wrap;html=1;strokeWidth=3;fillColor=none;strokeColor=#B624FF;" parent="1" vertex="1">
          <mxGeometry x="522" y="180" width="190" height="171" as="geometry" />
        </mxCell>
        <mxCell id="9GGa9re0MsrtyDnr-Xyq-19" value="" style="rounded=0;whiteSpace=wrap;html=1;strokeWidth=3;fillColor=none;strokeColor=#136B96;" parent="1" vertex="1">
          <mxGeometry x="570" y="230" width="142" height="121" as="geometry" />
        </mxCell>
        <mxCell id="9GGa9re0MsrtyDnr-Xyq-12" value="" style="rounded=0;whiteSpace=wrap;html=1;strokeWidth=3;fillColor=none;strokeColor=#21B5FF;" parent="1" vertex="1">
          <mxGeometry x="142" y="111" width="220" height="289" as="geometry" />
        </mxCell>
        <mxCell id="9GGa9re0MsrtyDnr-Xyq-8" value="Streaming API&lt;br&gt;Impletments cometD Server" style="aspect=fixed;html=1;points=[];align=center;image;fontSize=12;image=img/lib/azure2/integration/API_Management_Services.svg;strokeColor=#8D36FF;strokeWidth=3;fillColor=none;" parent="1" vertex="1">
          <mxGeometry x="226.23000000000002" y="288" width="65" height="60" as="geometry" />
        </mxCell>
        <mxCell id="SHI-ktM-hE5Mo1x6OOOh-1" value="&lt;div&gt;Azure &lt;br&gt;&lt;/div&gt;&lt;div&gt;Event Topic&lt;/div&gt;" style="aspect=fixed;html=1;points=[];align=center;image;fontSize=12;image=img/lib/azure2/integration/Event_Grid_Topics.svg;" parent="1" vertex="1">
          <mxGeometry x="860" y="278.75" width="67" height="60" as="geometry" />
        </mxCell>
        <mxCell id="SHI-ktM-hE5Mo1x6OOOh-8" value="CometD Java Client" style="shape=image;imageAspect=0;aspect=fixed;verticalLabelPosition=bottom;verticalAlign=top;image=https://external-content.duckduckgo.com/iu/?u=http%3A%2F%2Fwww.vhqpostsg.com%2Fcometd%2FcometdLogo.png&amp;f=1&amp;nofb=1;" parent="1" vertex="1">
          <mxGeometry x="589.9999999999999" y="271" width="92.6" height="52" as="geometry" />
        </mxCell>
        <mxCell id="SHI-ktM-hE5Mo1x6OOOh-27" value="" style="endArrow=none;dashed=1;html=1;fontColor=#058AFF;strokeColor=#058AFF;strokeWidth=3;" parent="1" edge="1">
          <mxGeometry width="50" height="50" relative="1" as="geometry">
            <mxPoint x="452" y="840" as="sourcePoint" />
            <mxPoint x="452" y="5.5" as="targetPoint" />
          </mxGeometry>
        </mxCell>
        <mxCell id="SHI-ktM-hE5Mo1x6OOOh-28" value="GreenStone Azure Tenant" style="text;html=1;strokeColor=none;fillColor=none;align=center;verticalAlign=middle;whiteSpace=wrap;rounded=0;fontStyle=1;fontSize=13;" parent="1" vertex="1">
          <mxGeometry x="502" y="20" width="171.3" height="30" as="geometry" />
        </mxCell>
        <mxCell id="SHI-ktM-hE5Mo1x6OOOh-9" value="" style="shape=image;imageAspect=0;aspect=fixed;verticalLabelPosition=bottom;verticalAlign=top;image=https://external-content.duckduckgo.com/iu/?u=https%3A%2F%2Fupload.wikimedia.org%2Fwikipedia%2Fen%2Fthumb%2F8%2F83%2FSalesforce_logo.svg%2F1200px-Salesforce_logo.svg.png&amp;f=1&amp;nofb=1;" parent="1" vertex="1">
          <mxGeometry x="166" y="70" width="91.42" height="64" as="geometry" />
        </mxCell>
        <mxCell id="9GGa9re0MsrtyDnr-Xyq-2" value="Event Bus" style="shape=cylinder3;whiteSpace=wrap;html=1;boundedLbl=1;backgroundOutline=1;size=15;strokeWidth=3;direction=north;strokeColor=#6c8ebf;fillColor=#dae8fc;" parent="1" vertex="1">
          <mxGeometry x="206" y="160" width="110" height="40" as="geometry" />
        </mxCell>
        <mxCell id="9GGa9re0MsrtyDnr-Xyq-3" value="" style="shape=image;imageAspect=0;aspect=fixed;verticalLabelPosition=bottom;verticalAlign=top;image=https://external-content.duckduckgo.com/iu/?u=http%3A%2F%2Fwww.vhqpostsg.com%2Fcometd%2FcometdLogo.png&amp;f=1&amp;nofb=1;" parent="1" vertex="1">
          <mxGeometry x="216" y="240" width="85.47" height="48" as="geometry" />
        </mxCell>
        <mxCell id="9GGa9re0MsrtyDnr-Xyq-5" value="" style="aspect=fixed;html=1;points=[];align=center;image;fontSize=12;image=img/lib/mscae/Docker.svg;strokeColor=#8D36FF;strokeWidth=3;fillColor=none;" parent="1" vertex="1">
          <mxGeometry x="670" y="235" width="36.93" height="30.28" as="geometry" />
        </mxCell>
        <mxCell id="9GGa9re0MsrtyDnr-Xyq-10" value="" style="endArrow=classic;html=1;exitX=0.5;exitY=0;exitDx=0;exitDy=0;exitPerimeter=0;" parent="1" source="9GGa9re0MsrtyDnr-Xyq-2" edge="1">
          <mxGeometry width="50" height="50" relative="1" as="geometry">
            <mxPoint x="666" y="400" as="sourcePoint" />
            <mxPoint x="226" y="320" as="targetPoint" />
            <Array as="points">
              <mxPoint x="176" y="180" />
              <mxPoint x="176" y="320" />
            </Array>
          </mxGeometry>
        </mxCell>
        <mxCell id="9GGa9re0MsrtyDnr-Xyq-11" value="Platform Events&amp;nbsp;&lt;br&gt;Change Data Capture" style="edgeLabel;html=1;align=center;verticalAlign=middle;resizable=0;points=[];" parent="9GGa9re0MsrtyDnr-Xyq-10" vertex="1" connectable="0">
          <mxGeometry x="-0.2727" y="2" relative="1" as="geometry">
            <mxPoint x="28" as="offset" />
          </mxGeometry>
        </mxCell>
        <mxCell id="9GGa9re0MsrtyDnr-Xyq-17" value="Salesforce Infrastructure" style="text;html=1;strokeColor=none;fillColor=none;align=center;verticalAlign=middle;whiteSpace=wrap;rounded=0;fontStyle=1;fontSize=13;" parent="1" vertex="1">
          <mxGeometry x="142" y="20" width="171.3" height="30" as="geometry" />
        </mxCell>
        <mxCell id="9GGa9re0MsrtyDnr-Xyq-18" value="" style="aspect=fixed;html=1;points=[];align=center;image;fontSize=12;image=img/lib/azure2/containers/Container_Instances.svg;strokeColor=#21B5FF;strokeWidth=3;fillColor=none;" parent="1" vertex="1">
          <mxGeometry x="642" y="134" width="64.93" height="70" as="geometry" />
        </mxCell>
        <mxCell id="9GGa9re0MsrtyDnr-Xyq-22" value="Azure Container Instance" style="text;html=1;strokeColor=none;fillColor=none;align=center;verticalAlign=middle;whiteSpace=wrap;rounded=0;" parent="1" vertex="1">
          <mxGeometry x="527.65" y="193" width="120" height="11" as="geometry" />
        </mxCell>
        <mxCell id="l08mAWF_vBkr479GJ7V6-2" value="Azure Key Vault" style="aspect=fixed;html=1;points=[];align=center;image;fontSize=12;image=img/lib/azure2/security/Key_Vaults.svg;" vertex="1" parent="1">
          <mxGeometry x="731" y="486" width="58" height="58" as="geometry" />
        </mxCell>
        <mxCell id="l08mAWF_vBkr479GJ7V6-3" value="" style="endArrow=classic;html=1;exitX=-0.021;exitY=0.876;exitDx=0;exitDy=0;exitPerimeter=0;" edge="1" parent="1" source="9GGa9re0MsrtyDnr-Xyq-19">
          <mxGeometry width="50" height="50" relative="1" as="geometry">
            <mxPoint x="390" y="520" as="sourcePoint" />
            <mxPoint x="290" y="336" as="targetPoint" />
          </mxGeometry>
        </mxCell>
        <mxCell id="l08mAWF_vBkr479GJ7V6-4" value="&lt;div&gt;Establish Connection&lt;/div&gt;&lt;div&gt;with Bearer Token&lt;br&gt;&lt;/div&gt;" style="edgeLabel;html=1;align=center;verticalAlign=middle;resizable=0;points=[];" vertex="1" connectable="0" parent="l08mAWF_vBkr479GJ7V6-3">
          <mxGeometry x="0.1625" y="3" relative="1" as="geometry">
            <mxPoint x="43.98" as="offset" />
          </mxGeometry>
        </mxCell>
        <mxCell id="l08mAWF_vBkr479GJ7V6-5" value="A" style="ellipse;whiteSpace=wrap;html=1;aspect=fixed;fillColor=#fff2cc;strokeColor=#d6b656;" vertex="1" parent="1">
          <mxGeometry x="370" y="327" width="20" height="20" as="geometry" />
        </mxCell>
        <mxCell id="l08mAWF_vBkr479GJ7V6-10" value="" style="endArrow=none;dashed=1;html=1;strokeWidth=3;exitX=0.516;exitY=-0.014;exitDx=0;exitDy=0;exitPerimeter=0;" edge="1" parent="1" source="l08mAWF_vBkr479GJ7V6-11">
          <mxGeometry width="50" height="50" relative="1" as="geometry">
            <mxPoint x="560" y="480" as="sourcePoint" />
            <mxPoint x="450" y="351" as="targetPoint" />
          </mxGeometry>
        </mxCell>
        <mxCell id="l08mAWF_vBkr479GJ7V6-12" value="Java App" style="shape=image;imageAspect=0;aspect=fixed;verticalLabelPosition=bottom;verticalAlign=top;dashed=1;strokeWidth=2;fillColor=none;image=https://external-content.duckduckgo.com/iu/?u=http%3A%2F%2Fmedia.idownloadblog.com%2Fwp-content%2Fuploads%2F2016%2F05%2Fjava-icon.png&amp;f=1&amp;nofb=1;" vertex="1" parent="1">
          <mxGeometry x="549.93" y="476" width="42.6" height="78" as="geometry" />
        </mxCell>
        <mxCell id="l08mAWF_vBkr479GJ7V6-15" value="" style="shape=image;imageAspect=0;aspect=fixed;verticalLabelPosition=bottom;verticalAlign=top;image=https://external-content.duckduckgo.com/iu/?u=https%3A%2F%2Fupload.wikimedia.org%2Fwikipedia%2Fen%2Fthumb%2F8%2F83%2FSalesforce_logo.svg%2F1200px-Salesforce_logo.svg.png&amp;f=1&amp;nofb=1;" vertex="1" parent="1">
          <mxGeometry x="231" y="490" width="91.42" height="64" as="geometry" />
        </mxCell>
        <mxCell id="l08mAWF_vBkr479GJ7V6-17" value="" style="endArrow=none;dashed=1;html=1;strokeWidth=1;" edge="1" parent="1">
          <mxGeometry width="50" height="50" relative="1" as="geometry">
            <mxPoint x="571" y="816" as="sourcePoint" />
            <mxPoint x="571" y="576" as="targetPoint" />
          </mxGeometry>
        </mxCell>
        <mxCell id="l08mAWF_vBkr479GJ7V6-18" value="" style="endArrow=none;dashed=1;html=1;strokeWidth=1;" edge="1" parent="1" source="l08mAWF_vBkr479GJ7V6-20">
          <mxGeometry width="50" height="50" relative="1" as="geometry">
            <mxPoint x="759.5" y="786" as="sourcePoint" />
            <mxPoint x="759.5" y="576" as="targetPoint" />
          </mxGeometry>
        </mxCell>
        <mxCell id="l08mAWF_vBkr479GJ7V6-19" value="" style="endArrow=none;dashed=1;html=1;strokeWidth=1;" edge="1" parent="1">
          <mxGeometry width="50" height="50" relative="1" as="geometry">
            <mxPoint x="341" y="816" as="sourcePoint" />
            <mxPoint x="341" y="576" as="targetPoint" />
          </mxGeometry>
        </mxCell>
        <mxCell id="l08mAWF_vBkr479GJ7V6-20" value="" style="rounded=0;whiteSpace=wrap;html=1;strokeWidth=1;direction=south;" vertex="1" parent="1">
          <mxGeometry x="755" y="586" width="10" height="70" as="geometry" />
        </mxCell>
        <mxCell id="l08mAWF_vBkr479GJ7V6-21" value="" style="endArrow=none;dashed=1;html=1;strokeWidth=1;" edge="1" parent="1" target="l08mAWF_vBkr479GJ7V6-20">
          <mxGeometry width="50" height="50" relative="1" as="geometry">
            <mxPoint x="760" y="816" as="sourcePoint" />
            <mxPoint x="759.5" y="576" as="targetPoint" />
          </mxGeometry>
        </mxCell>
        <mxCell id="l08mAWF_vBkr479GJ7V6-23" value="" style="rounded=0;whiteSpace=wrap;html=1;strokeWidth=1;direction=south;" vertex="1" parent="1">
          <mxGeometry x="335.71" y="586" width="10" height="188" as="geometry" />
        </mxCell>
        <mxCell id="l08mAWF_vBkr479GJ7V6-25" value="" style="rounded=0;whiteSpace=wrap;html=1;strokeWidth=1;direction=south;" vertex="1" parent="1">
          <mxGeometry x="567" y="586" width="10" height="230" as="geometry" />
        </mxCell>
        <mxCell id="l08mAWF_vBkr479GJ7V6-26" value="" style="endArrow=classic;html=1;strokeWidth=1;" edge="1" parent="1">
          <mxGeometry width="50" height="50" relative="1" as="geometry">
            <mxPoint x="577" y="594" as="sourcePoint" />
            <mxPoint x="751" y="594" as="targetPoint" />
          </mxGeometry>
        </mxCell>
        <mxCell id="l08mAWF_vBkr479GJ7V6-27" value="Request Certificate" style="edgeLabel;html=1;align=center;verticalAlign=middle;resizable=0;points=[];" vertex="1" connectable="0" parent="l08mAWF_vBkr479GJ7V6-26">
          <mxGeometry x="-0.1954" relative="1" as="geometry">
            <mxPoint x="14" y="-8" as="offset" />
          </mxGeometry>
        </mxCell>
        <mxCell id="l08mAWF_vBkr479GJ7V6-28" value="Certificate" style="endArrow=classic;html=1;strokeWidth=1;dashed=1;labelPosition=center;verticalLabelPosition=top;align=center;verticalAlign=bottom;" edge="1" parent="1">
          <mxGeometry width="50" height="50" relative="1" as="geometry">
            <mxPoint x="751" y="616" as="sourcePoint" />
            <mxPoint x="581" y="616" as="targetPoint" />
          </mxGeometry>
        </mxCell>
        <mxCell id="l08mAWF_vBkr479GJ7V6-31" value="" style="aspect=fixed;html=1;points=[];align=center;image;fontSize=12;image=img/lib/azure2/app_services/App_Service_Certificates.svg;strokeWidth=1;fillColor=#ffffff;" vertex="1" parent="1">
          <mxGeometry x="596" y="604" width="30" height="27.43" as="geometry" />
        </mxCell>
        <mxCell id="l08mAWF_vBkr479GJ7V6-35" value="&lt;div&gt;Public Key &lt;br&gt;&lt;/div&gt;&lt;div&gt;uploaded as&lt;/div&gt;&lt;div&gt;prerequisite&lt;br&gt;&lt;/div&gt;" style="aspect=fixed;html=1;points=[];align=center;image;fontSize=12;image=img/lib/azure2/app_services/App_Service_Certificates.svg;strokeWidth=1;fillColor=#ffffff;" vertex="1" parent="1">
          <mxGeometry x="287.2299999999999" y="586" width="30" height="27.43" as="geometry" />
        </mxCell>
        <mxCell id="l08mAWF_vBkr479GJ7V6-38" value="" style="endArrow=classic;html=1;strokeWidth=1;" edge="1" parent="1">
          <mxGeometry width="50" height="50" relative="1" as="geometry">
            <mxPoint x="577" y="663" as="sourcePoint" />
            <mxPoint x="581" y="693" as="targetPoint" />
            <Array as="points">
              <mxPoint x="651" y="663" />
              <mxPoint x="651" y="693" />
            </Array>
          </mxGeometry>
        </mxCell>
        <mxCell id="l08mAWF_vBkr479GJ7V6-39" value="&lt;div&gt;Create Signed JWT&lt;/div&gt;&lt;div&gt;with Private Key&lt;br&gt;&lt;/div&gt;" style="edgeLabel;html=1;align=center;verticalAlign=middle;resizable=0;points=[];" vertex="1" connectable="0" parent="l08mAWF_vBkr479GJ7V6-38">
          <mxGeometry x="-0.1954" relative="1" as="geometry">
            <mxPoint x="24" y="10.43" as="offset" />
          </mxGeometry>
        </mxCell>
        <mxCell id="l08mAWF_vBkr479GJ7V6-40" value="A" style="ellipse;whiteSpace=wrap;html=1;aspect=fixed;fillColor=#fff2cc;strokeColor=#d6b656;" vertex="1" parent="1">
          <mxGeometry x="370" y="327" width="20" height="20" as="geometry" />
        </mxCell>
        <mxCell id="l08mAWF_vBkr479GJ7V6-43" value="J" style="ellipse;whiteSpace=wrap;html=1;aspect=fixed;fillColor=#dae8fc;strokeColor=#6c8ebf;" vertex="1" parent="1">
          <mxGeometry x="592.53" y="684" width="20" height="20" as="geometry" />
        </mxCell>
        <mxCell id="l08mAWF_vBkr479GJ7V6-46" value="" style="aspect=fixed;html=1;points=[];align=center;image;fontSize=12;image=img/lib/azure2/app_services/App_Service_Certificates.svg;strokeWidth=1;fillColor=#ffffff;" vertex="1" parent="1">
          <mxGeometry x="588.65" y="646" width="30" height="27.43" as="geometry" />
        </mxCell>
        <mxCell id="l08mAWF_vBkr479GJ7V6-51" value="" style="endArrow=classic;html=1;strokeWidth=1;exitX=0.561;exitY=1.2;exitDx=0;exitDy=0;exitPerimeter=0;" edge="1" parent="1" source="l08mAWF_vBkr479GJ7V6-25">
          <mxGeometry width="50" height="50" relative="1" as="geometry">
            <mxPoint x="561" y="711" as="sourcePoint" />
            <mxPoint x="347" y="712" as="targetPoint" />
          </mxGeometry>
        </mxCell>
        <mxCell id="l08mAWF_vBkr479GJ7V6-58" value="POST /oauth2/token" style="edgeLabel;html=1;align=center;verticalAlign=middle;resizable=0;points=[];" vertex="1" connectable="0" parent="l08mAWF_vBkr479GJ7V6-51">
          <mxGeometry x="0.1636" y="1" relative="1" as="geometry">
            <mxPoint x="22" y="-1.38" as="offset" />
          </mxGeometry>
        </mxCell>
        <mxCell id="l08mAWF_vBkr479GJ7V6-53" value="J" style="ellipse;whiteSpace=wrap;html=1;aspect=fixed;fillColor=#dae8fc;strokeColor=#6c8ebf;" vertex="1" parent="1">
          <mxGeometry x="362.46999999999997" y="702" width="20" height="20" as="geometry" />
        </mxCell>
        <mxCell id="l08mAWF_vBkr479GJ7V6-55" value="" style="endArrow=classic;html=1;strokeWidth=1;" edge="1" parent="1">
          <mxGeometry width="50" height="50" relative="1" as="geometry">
            <mxPoint x="332" y="716" as="sourcePoint" />
            <mxPoint x="332" y="756" as="targetPoint" />
            <Array as="points">
              <mxPoint x="261" y="716" />
              <mxPoint x="261" y="736" />
              <mxPoint x="261" y="756" />
            </Array>
          </mxGeometry>
        </mxCell>
        <mxCell id="l08mAWF_vBkr479GJ7V6-57" value="&lt;div&gt;Validate Signature&lt;/div&gt;&lt;div&gt;with Public Key&lt;br&gt;&lt;/div&gt;" style="edgeLabel;html=1;align=center;verticalAlign=middle;resizable=0;points=[];" vertex="1" connectable="0" parent="l08mAWF_vBkr479GJ7V6-55">
          <mxGeometry x="0.3605" relative="1" as="geometry">
            <mxPoint y="-20" as="offset" />
          </mxGeometry>
        </mxCell>
        <mxCell id="l08mAWF_vBkr479GJ7V6-59" value="Access Token" style="endArrow=classic;html=1;strokeWidth=1;dashed=1;labelPosition=center;verticalLabelPosition=top;align=center;verticalAlign=bottom;" edge="1" parent="1">
          <mxGeometry width="50" height="50" relative="1" as="geometry">
            <mxPoint x="351" y="766" as="sourcePoint" />
            <mxPoint x="571" y="766" as="targetPoint" />
          </mxGeometry>
        </mxCell>
        <mxCell id="l08mAWF_vBkr479GJ7V6-60" value="A" style="ellipse;whiteSpace=wrap;html=1;aspect=fixed;fillColor=#fff2cc;strokeColor=#d6b656;" vertex="1" parent="1">
          <mxGeometry x="521" y="754" width="20" height="20" as="geometry" />
        </mxCell>
        <mxCell id="l08mAWF_vBkr479GJ7V6-62" value="Salesforce Connected App" style="text;html=1;strokeColor=none;fillColor=none;align=center;verticalAlign=middle;whiteSpace=wrap;rounded=0;" vertex="1" parent="1">
          <mxGeometry x="287.23" y="544" width="110.29" height="20" as="geometry" />
        </mxCell>
        <mxCell id="l08mAWF_vBkr479GJ7V6-63" value="" style="rounded=0;whiteSpace=wrap;html=1;strokeWidth=1;direction=south;" vertex="1" parent="1">
          <mxGeometry x="193" y="586" width="10" height="220" as="geometry" />
        </mxCell>
        <mxCell id="l08mAWF_vBkr479GJ7V6-65" value="&lt;div&gt;Salesforce CometD&lt;/div&gt;&lt;div&gt;Endpoint&lt;br&gt;&lt;/div&gt;" style="text;html=1;strokeColor=none;fillColor=none;align=center;verticalAlign=middle;whiteSpace=wrap;rounded=0;" vertex="1" parent="1">
          <mxGeometry x="142.86" y="544" width="110.29" height="20" as="geometry" />
        </mxCell>
        <mxCell id="l08mAWF_vBkr479GJ7V6-67" value="" style="endArrow=classic;html=1;strokeWidth=1;exitX=0.591;exitY=1;exitDx=0;exitDy=0;exitPerimeter=0;entryX=0.947;entryY=-0.3;entryDx=0;entryDy=0;entryPerimeter=0;" edge="1" parent="1" target="l08mAWF_vBkr479GJ7V6-63">
          <mxGeometry width="50" height="50" relative="1" as="geometry">
            <mxPoint x="565.71" y="796" as="sourcePoint" />
            <mxPoint x="211" y="792" as="targetPoint" />
          </mxGeometry>
        </mxCell>
        <mxCell id="l08mAWF_vBkr479GJ7V6-68" value="Establish Long Polling Connection" style="edgeLabel;html=1;align=center;verticalAlign=middle;resizable=0;points=[];" vertex="1" connectable="0" parent="l08mAWF_vBkr479GJ7V6-67">
          <mxGeometry x="0.1636" y="1" relative="1" as="geometry">
            <mxPoint x="22" y="-1.38" as="offset" />
          </mxGeometry>
        </mxCell>
        <mxCell id="l08mAWF_vBkr479GJ7V6-69" value="A" style="ellipse;whiteSpace=wrap;html=1;aspect=fixed;fillColor=#fff2cc;strokeColor=#d6b656;" vertex="1" parent="1">
          <mxGeometry x="221" y="783" width="20" height="20" as="geometry" />
        </mxCell>
        <mxCell id="l08mAWF_vBkr479GJ7V6-71" value="" style="endArrow=classic;html=1;strokeWidth=1;entryX=0;entryY=0.661;entryDx=0;entryDy=0;entryPerimeter=0;" edge="1" parent="1" target="9GGa9re0MsrtyDnr-Xyq-19">
          <mxGeometry width="50" height="50" relative="1" as="geometry">
            <mxPoint x="291.23" y="310" as="sourcePoint" />
            <mxPoint x="560" y="310" as="targetPoint" />
          </mxGeometry>
        </mxCell>
        <mxCell id="l08mAWF_vBkr479GJ7V6-72" value="CDC Event" style="edgeLabel;html=1;align=center;verticalAlign=middle;resizable=0;points=[];" vertex="1" connectable="0" parent="l08mAWF_vBkr479GJ7V6-71">
          <mxGeometry x="-0.1954" relative="1" as="geometry">
            <mxPoint x="46.77" y="-8" as="offset" />
          </mxGeometry>
        </mxCell>
        <mxCell id="l08mAWF_vBkr479GJ7V6-75" value="E" style="rounded=0;whiteSpace=wrap;html=1;strokeWidth=1;fillColor=#ffe6cc;strokeColor=#d79b00;" vertex="1" parent="1">
          <mxGeometry x="531" y="299" width="19" height="19.5" as="geometry" />
        </mxCell>
        <mxCell id="l08mAWF_vBkr479GJ7V6-76" value="" style="endArrow=classic;html=1;strokeWidth=1;exitX=1;exitY=0.661;exitDx=0;exitDy=0;exitPerimeter=0;" edge="1" parent="1" source="9GGa9re0MsrtyDnr-Xyq-19">
          <mxGeometry width="50" height="50" relative="1" as="geometry">
            <mxPoint x="860" y="450" as="sourcePoint" />
            <mxPoint x="858" y="310" as="targetPoint" />
          </mxGeometry>
        </mxCell>
        <mxCell id="l08mAWF_vBkr479GJ7V6-77" value="Z" style="rounded=0;whiteSpace=wrap;html=1;strokeWidth=1;fillColor=#d5e8d4;strokeColor=#82b366;" vertex="1" parent="1">
          <mxGeometry x="820" y="300.5" width="19" height="19.5" as="geometry" />
        </mxCell>
        <mxCell id="l08mAWF_vBkr479GJ7V6-79" value="Convert to Event Topic" style="text;html=1;strokeColor=none;fillColor=none;align=center;verticalAlign=middle;whiteSpace=wrap;rounded=0;" vertex="1" parent="1">
          <mxGeometry x="725" y="300" width="70" height="20" as="geometry" />
        </mxCell>
        <mxCell id="l08mAWF_vBkr479GJ7V6-81" value="&lt;b&gt;Establish Connection Sequence&lt;/b&gt;" style="text;html=1;strokeColor=none;fillColor=none;align=center;verticalAlign=middle;whiteSpace=wrap;rounded=0;" vertex="1" parent="1">
          <mxGeometry x="210" y="446" width="193.58" height="20" as="geometry" />
        </mxCell>
        <mxCell id="l08mAWF_vBkr479GJ7V6-82" value="" style="endArrow=classic;html=1;strokeWidth=1;" edge="1" parent="1">
          <mxGeometry width="50" height="50" relative="1" as="geometry">
            <mxPoint x="927" y="275.14" as="sourcePoint" />
            <mxPoint x="977" y="225.14" as="targetPoint" />
          </mxGeometry>
        </mxCell>
        <mxCell id="l08mAWF_vBkr479GJ7V6-83" value="" style="aspect=fixed;html=1;points=[];align=center;image;fontSize=12;image=img/lib/azure2/integration/Event_Grid_Subscriptions.svg;strokeWidth=1;fillColor=#ffffff;" vertex="1" parent="1">
          <mxGeometry x="980" y="193" width="67.01" height="60" as="geometry" />
        </mxCell>
        <mxCell id="l08mAWF_vBkr479GJ7V6-84" value="" style="aspect=fixed;html=1;points=[];align=center;image;fontSize=12;image=img/lib/azure2/integration/Event_Grid_Subscriptions.svg;strokeWidth=1;fillColor=#ffffff;" vertex="1" parent="1">
          <mxGeometry x="980" y="360" width="67.01" height="60" as="geometry" />
        </mxCell>
        <mxCell id="l08mAWF_vBkr479GJ7V6-85" value="" style="aspect=fixed;html=1;points=[];align=center;image;fontSize=12;image=img/lib/azure2/integration/Event_Grid_Subscriptions.svg;strokeWidth=1;fillColor=#ffffff;" vertex="1" parent="1">
          <mxGeometry x="980" y="278.75" width="67.01" height="60" as="geometry" />
        </mxCell>
        <mxCell id="l08mAWF_vBkr479GJ7V6-86" value="" style="endArrow=classic;html=1;strokeWidth=1;" edge="1" parent="1">
          <mxGeometry width="50" height="50" relative="1" as="geometry">
            <mxPoint x="930" y="309" as="sourcePoint" />
            <mxPoint x="977" y="309" as="targetPoint" />
          </mxGeometry>
        </mxCell>
        <mxCell id="l08mAWF_vBkr479GJ7V6-87" value="" style="endArrow=classic;html=1;strokeWidth=1;" edge="1" parent="1">
          <mxGeometry width="50" height="50" relative="1" as="geometry">
            <mxPoint x="927" y="338.75" as="sourcePoint" />
            <mxPoint x="970" y="390" as="targetPoint" />
          </mxGeometry>
        </mxCell>
        <mxCell id="l08mAWF_vBkr479GJ7V6-88" value="Event Grid Subscriptions" style="text;html=1;strokeColor=none;fillColor=none;align=center;verticalAlign=middle;whiteSpace=wrap;rounded=0;" vertex="1" parent="1">
          <mxGeometry x="956.75" y="160" width="113.51" height="20" as="geometry" />
        </mxCell>
        <mxCell id="l08mAWF_vBkr479GJ7V6-89" value="Z" style="rounded=0;whiteSpace=wrap;html=1;strokeWidth=1;fillColor=#d5e8d4;strokeColor=#82b366;" vertex="1" parent="1">
          <mxGeometry x="947" y="235" width="19" height="19.5" as="geometry" />
        </mxCell>
        <mxCell id="l08mAWF_vBkr479GJ7V6-91" value="Z" style="rounded=0;whiteSpace=wrap;html=1;strokeWidth=1;fillColor=#d5e8d4;strokeColor=#82b366;" vertex="1" parent="1">
          <mxGeometry x="946" y="300" width="19" height="19.5" as="geometry" />
        </mxCell>
        <mxCell id="l08mAWF_vBkr479GJ7V6-92" value="Z" style="rounded=0;whiteSpace=wrap;html=1;strokeWidth=1;fillColor=#d5e8d4;strokeColor=#82b366;" vertex="1" parent="1">
          <mxGeometry x="944.75" y="361" width="19" height="19.5" as="geometry" />
        </mxCell>
      </root>
    </mxGraphModel>
  </diagram>
</mxfile>
